<?xml version="1.0" encoding="utf-8"?>
<!-- Generator: Adobe Illustrator 23.0.1, SVG Export Plug-In . SVG Version: 6.00 Build 0)  -->
<svg version="1.1" id="Calque_1" xmlns="http://www.w3.org/2000/svg" xmlns:xlink="http://www.w3.org/1999/xlink" x="0px" y="0px"
	 viewBox="0 0 30.7 23.7" style="enable-background:new 0 0 30.7 23.7;" xml:space="preserve">
<style type="text/css">
	.st0{fill:none;stroke:#61307F;stroke-width:1.5;stroke-linecap:round;stroke-linejoin:round;stroke-miterlimit:10;}
	.st1{fill:#61307F;}
</style>
<g id="Outline_Icons_1_">
	<g>
		<g>
			<path class="st0" d="M14.1,18.7v0.9c0,1.5-1.2,2.7-2.7,2.7s-2.7-1.2-2.7-2.7v-0.5c0-4.1-7.3-5.4-7.3-10.9c0-5.2,3.7-6.8,6.8-6.8
				c3.3,0,5.9,2.6,5.9,5.9"/>
			<path class="st0" d="M11.9,6.5c-0.7-1.3-2.1-2.3-3.7-2.3c-2.3,0-4.1,1.8-4.1,4.1c0,4.1,5.9,5.4,5.9,8.2c0,1.5,1.8,1.4,1.8,1.4
				s1.4-0.3,1.4-1.4"/>
			<path class="st0" d="M7.5,8.8c0.5-1.7,2-2.9,3.8-3.1"/>
		</g>
	</g>
</g>
<g id="comp_x5F_180-itunes-note_1_">
	<g>
		<path class="st1" d="M27.1,16.1c-0.2,0.8-0.8,1.2-1.6,1.4c-0.7,0.1-1.3,0.2-1.9-0.3c-0.7-0.6-0.7-1.5-0.1-2.2
			c0.5-0.5,1.2-0.6,2.2-0.7c0.2,0,0.3-0.1,0.5-0.2c0.2-0.2,0.1-0.1,0.1-4.7c0-0.3-0.2-0.4-0.5-0.4c-0.2,0-5.4,1-5.4,1
			c-0.3,0.1-0.4,0.2-0.4,0.5c0,6.8,0,6.5-0.1,6.9c-0.1,0.5-0.4,0.9-0.9,1.1c-0.5,0.3-1.4,0.4-1.8,0.3c-1.2-0.2-1.7-1.7-0.8-2.5
			c0.5-0.5,1.2-0.6,2.2-0.7c0.2,0,0.3-0.1,0.5-0.2c0.3-0.3,0.1-7.4,0.2-7.8c0-0.2,0.1-0.3,0.2-0.4C19.6,7.1,19.8,7,19.9,7
			c5.9-1.1,6.6-1.2,6.7-1.2c0.3,0,0.5,0.2,0.5,0.5C27.1,16.2,27.2,15.7,27.1,16.1z"/>
	</g>
</g>
<g id="comp_x5F_180-itunes-note_2_">
	<g>
		<path class="st1" d="M17.4,5.9c0,1.1,0.1,5.9,0,6.7c0,0.1,0,0.2,0,0.2c-0.1,0.5-0.4,0.9-0.9,1.1c-0.5,0.3-1.4,0.4-1.8,0.3
			c-1.2-0.2-1.7-1.7-0.8-2.5c0.5-0.5,1.2-0.6,2.2-0.7c0.2,0,0.3-0.1,0.5-0.2c0.3-0.3,0.1-7.4,0.2-7.8c0-0.2,0.1-0.3,0.2-0.4
			c0.2-0.3,0.4-0.5,0.6-0.4c0.1,0,0.1,0.2,0.1,0.2C17.4,4.5,17.4,4.8,17.4,5.9z"/>
	</g>
</g>
</svg>
