<?xml version="1.0" encoding="utf-8"?>
<!-- Generator: Adobe Illustrator 23.0.1, SVG Export Plug-In . SVG Version: 6.00 Build 0)  -->
<svg version="1.1" id="Calque_1" xmlns="http://www.w3.org/2000/svg" xmlns:xlink="http://www.w3.org/1999/xlink" x="0px" y="0px"
	 viewBox="0 0 30.7 23.7" style="enable-background:new 0 0 30.7 23.7;" xml:space="preserve">
<style type="text/css">
	.st0{fill:#61307F;}
</style>
<g>
	<path class="st0" d="M20.5,5.8l2.6-2.7c0.2-0.2,0.2-0.5,0-0.7c-0.2-0.2-0.5-0.2-0.7,0l-3.1,3.2c-1-0.4-2.3-0.5-3.6-0.5
		c-5.2,0-9.4,2.1-9.4,4.8v8.7c0,2.7,4.2,4.8,9.4,4.8s9.4-2.1,9.4-4.8V9.9C25.2,8.2,23.4,6.7,20.5,5.8z M8.3,18.6v-5.8
		c1.7,1.2,4.4,1.9,7.5,1.9c0.9,0,2-0.1,2.8-0.2v6.7c-0.8,0.2-1.8,0.3-2.8,0.3C11.1,21.5,8.3,19.7,8.3,18.6z M20.5,14.1v6.6
		c-0.3,0.1-0.6,0.2-0.9,0.3v-6.7C19.9,14.3,20.3,14.2,20.5,14.1z M23.4,18.6c0,0.5-0.7,1.2-1.9,1.7v-6.5l0,0c0.8-0.3,1.4-0.6,1.9-1
		V18.6z M15.8,12.8c-4.7,0-7.5-1.8-7.5-2.9s2.8-2.9,7.5-2.9c0.8,0,1.4,0.1,2.1,0.1l-0.9,1c-0.6-0.3-1.1-0.2-1.6,0.3
		c-0.6,0.6-0.6,1.4,0,2c0.6,0.6,1.4,0.6,2,0c0.5-0.5,0.5-1.1,0.3-1.6L19,7.3c2.7,0.6,4.3,1.8,4.3,2.6C23.4,11,20.5,12.8,15.8,12.8z"
		/>
	<path class="st0" d="M12.6,3.2c0.8,0,1.4-0.7,1.4-1.4s-0.7-1.4-1.4-1.4c-0.7,0-1.1,0.4-1.3,1H3.2c-0.3,0-0.5,0.2-0.5,0.5
		s0.2,0.5,0.5,0.5h8.1C11.4,2.8,11.9,3.2,12.6,3.2z"/>
</g>
</svg>
