<svg xmlns="http://www.w3.org/2000/svg" viewBox="0 0 278.01 170.83"><defs><style>.a{fill:#231f20;}</style></defs><title>junction</title><path class="a" d="M23.74-15.65c2.2,1.67,7.08-1.16,9.42.29C34.71-20.08,24.11-19.08,23.74-15.65Z" transform="translate(9.18 65.94)"/><path class="a" d="M9.56-17c.79,1.44,2.87,1.58,5,1.61s4.33-.39,5.64.1c.55-2.36-1.62-3.15-4.11-3.15a21.45,21.45,0,0,0-3.79.41A8.36,8.36,0,0,0,9.56-17Z" transform="translate(9.18 65.94)"/><path class="a" d="M-3.67-23.92a2.41,2.41,0,0,0,.06,2.45,6.11,6.11,0,0,0,.94,1.07,7.75,7.75,0,0,0,.61.5c.23.14.47.27.71.4.49.27,1,.52,1.54.78s1.1.39,1.65.61,1.07.47,1.6.66A8.77,8.77,0,0,1,5-16.72a2.88,2.88,0,0,0-.64-2.76,7.75,7.75,0,0,0-1.1-.89A8.11,8.11,0,0,0,1.79-21c-.53-.18-1-.47-1.54-.66a10.25,10.25,0,0,1-1.54-.68c-.48-.25-1-.48-1.38-.73S-3.4-23.68-3.67-23.92Z" transform="translate(9.18 65.94)"/><path class="a" d="M-8.78-37.58a13.23,13.23,0,0,0-.08,6,26.08,26.08,0,0,0,.75,2.71c.35.85.57,1.68.92,2.44a3.23,3.23,0,0,0,1.66-2.43A8.35,8.35,0,0,0-5.88-32C-6.51-34.31-7.65-37-8.78-37.58Z" transform="translate(9.18 65.94)"/><path class="a" d="M-7.95-50.15c-2.45.87-.32,5.16-1.17,8.22C-5.21-40.92-5.42-49.86-7.95-50.15Z" transform="translate(9.18 65.94)"/><path class="a" d="M-8.8-65.93c-.6,4.07.26,6-.21,11C-4.31-54.9-6-66.32-8.8-65.93Z" transform="translate(9.18 65.94)"/><path class="a" d="M110.08-14.84c2.18,1.67,7.08-1.16,9.42.29C121.09-19.27,110.48-18.27,110.08-14.84Z" transform="translate(9.18 65.94)"/><path class="a" d="M96-15.7c1.9,2.53,8,.19,10.57,1.18C107.69-19.24,97.87-17.64,96-15.7Z" transform="translate(9.18 65.94)"/><path class="a" d="M80.67-17c1.36,3.6,6.92,1.13,10.94,2.48C91.55-19.56,83.74-17.23,80.67-17Z" transform="translate(9.18 65.94)"/><path class="a" d="M65.71-15.77c4.09,1.18,7.9.08,11,.33C76.4-20.36,67-18,65.71-15.77Z" transform="translate(9.18 65.94)"/><path class="a" d="M53.16-16.59c.9,2.44,5.16.25,8.22,1.11C62.41-19.41,53.4-19.15,53.16-16.59Z" transform="translate(9.18 65.94)"/><path class="a" d="M37.41-15.36c4.08.47,6-.44,11-.09C48.34-20.16,36.93-18.13,37.41-15.36Z" transform="translate(9.18 65.94)"/><path class="a" d="M196.44-14c2.19,1.67,7.09-1.16,9.42.29C207.45-18.46,196.84-17.46,196.44-14Z" transform="translate(9.18 65.94)"/><path class="a" d="M182.32-14.89c1.91,2.53,8,.19,10.58,1.18C194.06-18.43,184.24-16.83,182.32-14.89Z" transform="translate(9.18 65.94)"/><path class="a" d="M167-16.22c1.36,3.61,6.92,1.13,10.93,2.48C177.91-18.75,170.11-16.42,167-16.22Z" transform="translate(9.18 65.94)"/><path class="a" d="M152.08-15c4.09,1.18,7.9.08,11,.33C162.76-19.55,153.35-17.16,152.08-15Z" transform="translate(9.18 65.94)"/><path class="a" d="M139.53-15.78c.89,2.44,5.16.25,8.22,1.11C148.78-18.6,139.77-18.34,139.53-15.78Z" transform="translate(9.18 65.94)"/><path class="a" d="M123.78-14.55c4.08.47,6-.44,11-.09C134.71-19.35,123.29-17.32,123.78-14.55Z" transform="translate(9.18 65.94)"/><path class="a" d="M265.69,8.94c-1.65,2.21,1.22,7.08-.2,9.42C270.23,19.91,269.12,9.31,265.69,8.94Z" transform="translate(9.18 65.94)"/><path class="a" d="M264.78-4.71c-.73,1.36-.2,2.93.24,4.83s.81,3.94.32,5.28c2.34.55,3.21-1.57,2.91-4.29a9.38,9.38,0,0,0-1.34-3.81A5.55,5.55,0,0,0,265.83-4,2.67,2.67,0,0,0,264.78-4.71Z" transform="translate(9.18 65.94)"/><path class="a" d="M253.46-14.09c.28,1.92,1.8,2.54,3.56,3.28a16.73,16.73,0,0,1,2.69,1.32,5.19,5.19,0,0,1,1.91,2.16,2.44,2.44,0,0,0,.82-2.69,4.87,4.87,0,0,0-2.29-2.4,12.61,12.61,0,0,0-3.62-1.23C255.32-13.87,254.23-14,253.46-14.09Z" transform="translate(9.18 65.94)"/><path class="a" d="M238.45-14.16c4.05,1.21,7.83.32,10.84.95.19-2.45-2.26-3.41-4.88-3.27S239.09-15.25,238.45-14.16Z" transform="translate(9.18 65.94)"/><path class="a" d="M225.91-15c.92,2.44,5.17.27,8.23,1.1C235.14-17.79,226.13-17.53,225.91-15Z" transform="translate(9.18 65.94)"/><path class="a" d="M210.18-13.74c4.08.47,6-.44,11-.09C221.06-18.54,209.67-16.51,210.18-13.74Z" transform="translate(9.18 65.94)"/><path class="a" d="M265.69,95.31c-1.65,2.2,1.22,7.08-.2,9.42C270.23,106.28,269.12,95.68,265.69,95.31Z" transform="translate(9.18 65.94)"/><path class="a" d="M266.42,81.18c-2.51,1.93-.11,8-1.08,10.59C270.07,92.89,268.37,83.08,266.42,81.18Z" transform="translate(9.18 65.94)"/><path class="a" d="M267.6,65.89c-3.59,1.39-1.06,6.93-2.37,11C270.23,76.74,267.83,69,267.6,65.89Z" transform="translate(9.18 65.94)"/><path class="a" d="M266.21,50.94c-1.15,4.1,0,7.9-.23,11C270.9,61.58,268.42,52.19,266.21,50.94Z" transform="translate(9.18 65.94)"/><path class="a" d="M266.9,38.38c-2.42.92-.2,5.17-1,8.23C269.82,47.61,269.47,38.6,266.9,38.38Z" transform="translate(9.18 65.94)"/><path class="a" d="M265.53,22.65c-.43,4.08.5,6,.19,11C270.43,33.53,268.3,22.14,265.53,22.65Z" transform="translate(9.18 65.94)"/></svg>