<svg xmlns="http://www.w3.org/2000/svg" viewBox="0 0 465.6 73.29"><defs><style>.a{fill:#ffffff;}.b{fill:#ffffff;}</style></defs><title>logo</title><path class="a" d="M5.7-5.36A72.18,72.18,0,0,1,2.92,5.91a51.56,51.56,0,0,1-4.7,10.33,25.12,25.12,0,0,1-6.71,7.62c-.3.21-.61.38-.91.57s-.6.33-.89.43a5.86,5.86,0,0,1-.79.28,4.77,4.77,0,0,1-.75.16,5.25,5.25,0,0,1-2.92-.4,7.33,7.33,0,0,1-.73-.42c-.16-.13-.41-.28-.67-.48s-.52-.41-.78-.61c-.54-.47-1.09-1-1.65-1.56a48.14,48.14,0,0,1-3.42-4c-1.15-1.48-2.34-3.1-3.51-4.73s-2.31-3.26-3.42-4.92C-31.16,4.86-33.29,1.49-35.34-2q-1.53-2.61-3-5.28c-1-1.74-2-3.73-3.33-5.87-.35-.59-.75-1.2-1.15-1.81-.15-.23-.58-.82-.93-1.28s-.72-.91-1.09-1.36c-.72-.93-1.52-1.76-2.31-2.61-.41-.41-.84-.78-1.26-1.18a17.09,17.09,0,0,0-1.3-1.12,21.93,21.93,0,0,0-12.22-4.93,21.06,21.06,0,0,0-8,1.17,28,28,0,0,0-7.33,4c-1.13.83-2.27,1.76-3.3,2.66l-2,1.83c-1.2,1.12-2.32,2.31-3.45,3.48A110.46,110.46,0,0,0-97.65.78c-6.76,10.51-11.93,21.46-17.19,32.48a.59.59,0,0,0,.18.79.59.59,0,0,0,.7-.4A331.94,331.94,0,0,1-95.84,1.89,99.3,99.3,0,0,1-84.37-13c1.12-1.12,2.19-2.28,3.37-3.35l.88-.81,1.1-1c1-.85,2-1.67,3-2.42a26,26,0,0,1,6.65-3.61,19,19,0,0,1,7.27-1.1,20.71,20.71,0,0,1,5.83,1.35A21.47,21.47,0,0,1-51-20.86a30,30,0,0,1,2.33,2.05c.72.76,1.47,1.49,2.13,2.32s1.35,1.61,2,2.49c.42.59.78,1.14,1.16,1.72,1.33,2.06,2.46,4,3.49,5.75S-37.83-3-36.76-1.3c2.14,3.45,4.34,6.83,6.64,10.15q1.71,2.49,3.51,4.94c1.19,1.64,2.41,3.29,3.59,4.8a53.25,53.25,0,0,0,3.57,4.17A20.88,20.88,0,0,0-16,25.67c.31.18.62.36,1,.51a6.18,6.18,0,0,0,4.63,0A11.35,11.35,0,0,0-8,24.85,19.88,19.88,0,0,0-5.55,22.7,40.92,40.92,0,0,0,1.88,10.11,62.73,62.73,0,0,0,6-5.43a.11.11,0,0,0-.13-.11A.18.18,0,0,0,5.7-5.36Z" transform="translate(114.91 27.45)"/><path class="a" d="M11.87-3.64a78.78,78.78,0,0,1-3,12.05A57.6,57.6,0,0,1,3.58,19.74,31.29,31.29,0,0,1-4.72,29a15.35,15.35,0,0,1-5.6,2.51,11.23,11.23,0,0,1-5.95-.41,14.87,14.87,0,0,1-1.58-.7c-3.49-1.89-6.22-5-8.76-8.16s-4.94-6.61-7.25-10-4.5-6.87-6.61-10.43q-1.59-2.67-3.12-5.41c-1-1.8-2-3.74-3.24-5.74-.33-.56-.68-1.12-1-1.68l-.71-1c-.26-.36-.54-.7-.81-1.05A26.48,26.48,0,0,0-53-16.91,15.85,15.85,0,0,0-62.31-21c-4.27-.23-8.29,1.67-11.72,4.31-.86.65-1.72,1.36-2.51,2.06L-78.32-13c-1.12,1.05-2.17,2.17-3.23,3.27a103.49,103.49,0,0,0-11,14.31c-6.4,10-11.36,20.56-16.44,31.18a.57.57,0,0,0,.19.76.57.57,0,0,0,.69-.37C-102.95,25.61-97,15.84-90.7,5.7A94.59,94.59,0,0,1-79.91-8.43c1-1.05,2.06-2.14,3.16-3.14l1.74-1.6c.72-.63,1.46-1.25,2.22-1.82,3-2.32,6.56-4.09,10.36-3.91a14,14,0,0,1,8.21,3.66A25.61,25.61,0,0,1-51-11.88c.48.6,1,1.22,1.42,1.86s.7,1,1,1.57c1.23,1.92,2.32,3.81,3.39,5.61S-43,.75-41.9,2.52c2.21,3.53,4.48,7,6.85,10.41s4.83,6.8,7.41,10.09,5.39,6.47,9.22,8.58a14.91,14.91,0,0,0,1.84.81A12.2,12.2,0,0,0-8,32.14a18,18,0,0,0,3.78-2.08A26,26,0,0,0-1,27.24,46,46,0,0,0,7.62,12.93,67.34,67.34,0,0,0,12.13-3.72.12.12,0,0,0,12-3.84.2.2,0,0,0,11.87-3.64Z" transform="translate(114.91 27.45)"/><path class="a" d="M18-1.93a83.26,83.26,0,0,1-3.32,12.84A62.88,62.88,0,0,1,8.94,23.24a37.39,37.39,0,0,1-9.89,11c-.55.39-1.14.75-1.72,1.12s-1.21.69-1.87,1a20,20,0,0,1-4.28,1.46,17.55,17.55,0,0,1-9-.41,21.21,21.21,0,0,1-2.43-1,26,26,0,0,1-6.39-4.57,51.32,51.32,0,0,1-4.62-5.1c-2.73-3.44-5.15-6.84-7.56-10.35s-4.65-7-6.83-10.7C-46.7,3.84-47.76,2-48.81.12S-50.87-3.64-52-5.5a28.38,28.38,0,0,0-4.31-5.82,10.11,10.11,0,0,0-6.39-3.31,9,9,0,0,0-4.34,1,19.27,19.27,0,0,0-3.76,2.48,66.9,66.9,0,0,0-6.3,6A98.49,98.49,0,0,0-87.36,8.4c-6,9.54-10.79,19.65-15.7,29.87a.55.55,0,0,0,.2.74.54.54,0,0,0,.68-.35c5-10.14,10.68-19.49,16.62-29.14A87.18,87.18,0,0,1-75.44-3.84c1-1,1.91-2,2.94-2.95L-71-8.17c.47-.42.94-.83,1.43-1.22a17.27,17.27,0,0,1,3.14-2.08,7.47,7.47,0,0,1,3.64-.85,8.55,8.55,0,0,1,5.34,2.75,19,19,0,0,1,2,2.31c.3.4.59.81.86,1.22s.63.94.94,1.42c2.19,3.55,4.34,7.36,6.62,11S-42.42,13.52-40,17q1.83,2.63,3.74,5.23c1.28,1.73,2.56,3.44,4,5.2a55.23,55.23,0,0,0,4.75,5.25,27.19,27.19,0,0,0,6.69,4.83,21.93,21.93,0,0,0,2.73,1.1,18.59,18.59,0,0,0,12.48-.56,26,26,0,0,0,9.07-6.28c4.66-4.92,7.53-10.41,9.9-16A73.43,73.43,0,0,0,18.3-2c0-.08-.07-.14-.14-.12A.22.22,0,0,0,18-1.93Z" transform="translate(114.91 27.45)"/><path class="a" d="M24.2-.21A88.45,88.45,0,0,1,20.6,13.4a67.54,67.54,0,0,1-6.31,13.34A43.47,43.47,0,0,1,2.82,39.37c-.67.48-1.4.94-2.12,1.39S-.81,41.63-1.67,42a24.8,24.8,0,0,1-2.72,1.11A25,25,0,0,1-7.31,44a24,24,0,0,1-12-.41,29.51,29.51,0,0,1-3.28-1.25,31.08,31.08,0,0,1-8-5.52,55.26,55.26,0,0,1-5.22-5.66c-1.5-1.84-2.8-3.59-4.09-5.35s-2.55-3.54-3.78-5.33q-3.67-5.38-7-11Q-52.42,6.69-54,3.81l-3.07-5.5L-58.47-4a11.08,11.08,0,0,0-1.18-1.59,5.3,5.3,0,0,0-3.42-1.95,6.6,6.6,0,0,0-4.42,1.94c-.32.27-.61.53-.92.83L-69.8-3.44c-1,.91-1.87,1.9-2.79,2.86A93.56,93.56,0,0,0-82.22,12.2c-5.7,9.07-10.21,18.75-15,28.58a.54.54,0,0,0,.2.72.55.55,0,0,0,.68-.33C-91.51,31.42-86,22.49-80.42,13.33A82,82,0,0,1-71,.74c.9-.91,1.77-1.88,2.71-2.74L-67-3.18c.21-.2.42-.39.65-.58a4.63,4.63,0,0,1,3.14-1.37,3.8,3.8,0,0,1,2.43,1.37,7.52,7.52,0,0,1,.84,1.13,4.88,4.88,0,0,1,.33.57c.27.39.55.85.82,1.27,2,3.23,4.29,7.29,6.62,10.94s4.75,7.36,7.27,11c1.26,1.8,2.55,3.58,3.86,5.36s2.63,3.53,4.16,5.41a59.7,59.7,0,0,0,5.33,5.79,33.36,33.36,0,0,0,8.32,5.79,29.75,29.75,0,0,0,3.63,1.39A25,25,0,0,0-3.19,44,32.43,32.43,0,0,0,8,36.34c5.45-5.73,8.55-11.72,11.14-17.76A78.64,78.64,0,0,0,24.47-.3c0-.09-.07-.14-.14-.13A.24.24,0,0,0,24.2-.21Z" transform="translate(114.91 27.45)"/><path class="b" d="M72.52,30.14,63.76,17.67c-.81.06-1.68.12-2.55.12h-10V30.14h-5.8v-40.6H61.21c10.55,0,16.93,5.34,16.93,14.16,0,6.26-3.24,10.78-8.93,12.81l9.63,13.63ZM72.34,3.7c0-5.8-3.88-9.11-11.3-9.11H51.18V12.86H61C68.46,12.86,72.34,9.5,72.34,3.7Z" transform="translate(114.91 27.45)"/><path class="b" d="M110.8,11.58V30.14h-5.28V26.08c-1.85,2.79-5.28,4.41-10.09,4.41-7,0-11.37-3.71-11.37-9,0-4.93,3.19-9,12.36-9h8.81v-1.1c0-4.7-2.73-7.42-8.23-7.42a15.55,15.55,0,0,0-9.75,3.3L84.93,3.06A20.48,20.48,0,0,1,97.63-.89C106-.89,110.8,3.17,110.8,11.58Zm-5.57,9.17V16.46H96.65c-5.51,0-7.08,2.14-7.08,4.75,0,3.08,2.55,5,6.79,5S103.84,24.29,105.23,20.75Z" transform="translate(114.91 27.45)"/><path class="b" d="M117.24,26.89l2.32-4.4a19.78,19.78,0,0,0,10.78,3.19c5.17,0,7.31-1.57,7.31-4.18,0-6.9-19.43-.93-19.43-13.16,0-5.51,4.93-9.23,12.82-9.23,4,0,8.53,1.05,11.19,2.79l-2.37,4.41A16.07,16.07,0,0,0,131,3.87c-4.87,0-7.25,1.8-7.25,4.23,0,7.25,19.49,1.34,19.49,13.28,0,5.57-5.1,9.11-13.28,9.11C124.83,30.49,119.79,28.93,117.24,26.89Z" transform="translate(114.91 27.45)"/><path class="b" d="M182,14.77c0,9.46-6.55,15.72-15.54,15.72a13.12,13.12,0,0,1-10.73-5V41.39h-5.57V-.6h5.34V4.28a13.06,13.06,0,0,1,11-5.17C175.47-.89,182,5.38,182,14.77Zm-5.62,0C176.4,8.28,171.93,4,166,4s-10.32,4.29-10.32,10.78S160.16,25.62,166,25.62,176.4,21.33,176.4,14.77Z" transform="translate(114.91 27.45)"/><path class="b" d="M216.07-.6,201.16,33.22c-2.72,6.49-6.26,8.52-11,8.52a11.53,11.53,0,0,1-7.89-2.84l2.38-4.18A7.87,7.87,0,0,0,190.2,37c2.67,0,4.35-1.22,5.86-4.76l1-2.15L183.47-.6h5.8L200,24,210.62-.6Z" transform="translate(114.91 27.45)"/><path class="b" d="M235.32,12.11l-7.42,7.54V30.14h-5.8v-40.6h5.8V12.22l22-22.68h6.61L239.21,7.81l18.44,22.33h-6.78Z" transform="translate(114.91 27.45)"/><path class="b" d="M289.32,16.63H264.38c.7,5.39,5.05,9,11.14,9a11.49,11.49,0,0,0,8.87-3.71l3.07,3.59c-2.78,3.25-7,5-12.12,5-9.91,0-16.53-6.55-16.53-15.72S265.37-.89,274.24-.89s15.2,6.38,15.2,15.84C289.44,15.41,289.38,16.11,289.32,16.63Zm-24.94-4H284.1a9.92,9.92,0,0,0-19.72,0Z" transform="translate(114.91 27.45)"/><path class="b" d="M323.77-.6l-14.9,33.82c-2.73,6.49-6.27,8.52-11,8.52A11.52,11.52,0,0,1,290,38.9l2.38-4.18A7.86,7.86,0,0,0,297.91,37c2.66,0,4.35-1.22,5.85-4.76l1-2.15L291.18-.6H297L307.71,24,318.32-.6Z" transform="translate(114.91 27.45)"/><path class="b" d="M324.7,26.89l2.32-4.4a19.82,19.82,0,0,0,10.79,3.19c5.16,0,7.31-1.57,7.31-4.18,0-6.9-19.43-.93-19.43-13.16,0-5.51,4.93-9.23,12.82-9.23,4,0,8.52,1.05,11.19,2.79l-2.38,4.41a16,16,0,0,0-8.87-2.44c-4.87,0-7.25,1.8-7.25,4.23,0,7.25,19.49,1.34,19.49,13.28,0,5.57-5.11,9.11-13.29,9.11C332.3,30.49,327.25,28.93,324.7,26.89Z" transform="translate(114.91 27.45)"/></svg>